<svg xmlns="http://www.w3.org/2000/svg" width="18" height="18" viewBox="0 0 18 18">
  <path fill="#65D5FF" fill-rule="evenodd" d="M9,19 C4.02943725,19 0,14.9705627 0,10 C0,5.02943725 4.02943725,1 9,1 C13.9705627,1 18,5.02943725 18,10 C18,14.9705627 13.9705627,19 9,19 Z M6,13.1957524 C6,13.3831721 6.05266944,13.5668197 6.1520017,13.7257513 C6.44471203,14.1940878 7.06166241,14.336461 7.52999894,14.0437507 L12.6432027,10.8479983 C12.7719718,10.7675176 12.8807214,10.6587681 12.9612021,10.5299989 C13.2539124,10.0616624 13.1115392,9.44471203 12.6432027,9.1520017 L7.52999894,5.95624934 C7.37106734,5.85691709 7.18741972,5.80424764 7,5.80424764 C6.44771525,5.80424764 6,6.25196289 6,6.80424764 L6,13.1957524 Z" transform="translate(0 -1)"/>
</svg>
