<svg xmlns="http://www.w3.org/2000/svg" width="190" height="60" viewBox="0 0 190 60">
  <path fill="#0AE" d="M178.401276,120.000195 L178.401276,120 C178.838725,120 179.283233,120 179.720682,120.003 C180.091552,120.005925 180.471916,120.014715 180.842786,120.022035 C181.658551,120.033207 182.472404,120.121849 183.277114,120.287174 C184.084963,120.456554 184.86778,120.773544 185.599707,121.227671 C187.063595,122.154226 188.254981,123.622977 189.006307,125.427357 C189.373488,126.326429 189.627575,127.289094 189.759853,128.282328 C189.895588,129.275018 189.971099,130.278795 189.985759,131.285318 C189.990506,131.745277 189.990506,132.206705 189.990506,132.666664 C190,133.210112 190,133.75503 190,134.304344 L190,165.697246 C190,166.251045 190,166.792993 189.990506,167.337941 C189.990506,167.80369 189.990506,168.254888 189.985759,168.720787 C189.971096,169.72726 189.895585,170.730987 189.759853,171.723627 C189.627943,172.71744 189.373841,173.680657 189.006307,174.580068 C188.632957,175.475201 188.147619,176.292345 187.568106,177.00151 C186.992911,177.716781 186.328335,178.313712 185.599707,178.769554 C184.867782,179.224895 184.085049,179.543771 183.277114,179.715751 C182.472265,179.879733 181.658497,179.968386 180.842786,179.98095 C180.471916,179.99115 180.091552,179.997 179.720682,179.997 C179.283233,180 178.838725,180 178.401276,180 L11.6052726,180 C11.1589628,180 10.7179476,180 10.2728062,179.997 C9.90017138,179.997 9.5305064,179.99115 9.15429307,179.98095 C8.33703709,179.96768 7.52173377,179.879032 6.71521743,179.715751 C5.90988118,179.544973 5.1299436,179.226012 4.40153406,178.769554 C3.67224853,178.313976 3.00705922,177.717028 2.43137099,177.00151 C1.85035425,176.295112 1.36604617,175.47737 0.997271438,174.580068 C0.626959114,173.681311 0.3704147,172.718017 0.23654372,171.723627 C0.101028754,170.731123 0.0281053205,169.727173 0.0184278682,168.720787 C0.00714475473,168.254888 0.00595193367,167.80369 0,167.337941 L0,132.666664 C0.00595193367,132.206705 0.00714475473,131.745277 0.0184400399,131.285378 C0.0281145254,130.278942 0.101037958,129.274942 0.236555891,128.282388 C0.370797554,127.288579 0.6273268,126.325838 0.997283609,125.427417 C1.36622217,124.527205 1.850458,123.706138 2.43137099,122.99579 C3.00925034,122.283439 3.67400998,121.686897 4.40153406,121.227806 C5.12994913,120.772566 5.90997081,120.455492 6.71521743,120.287309 C7.52159669,120.122709 8.33698386,120.034098 9.15429307,120.022245 C9.5305064,120.01491 9.90017138,120.006195 10.2728062,120.003195 C10.7179598,120.000195 11.1589384,120.000195 11.6052726,120.000195 L178.401276,120.000195 Z M68.3642578,132.499023 L68.3642578,148 L74.0253906,148 C78.6660156,148 81.3945312,145.121094 81.3945312,140.211914 C81.3945312,135.302734 78.6552734,132.499023 74.0253906,132.499023 L68.3642578,132.499023 Z M71.1357422,134.84082 L73.7353516,134.84082 C76.8291016,134.84082 78.5693359,136.75293 78.5693359,140.222656 C78.5693359,143.756836 76.8505859,145.658203 73.7353516,145.658203 L71.1357422,145.658203 L71.1357422,134.84082 Z M88.9554688,148.225586 C92.2962891,148.225586 94.466211,146.001953 94.466211,142.306641 C94.466211,138.62207 92.2748047,136.376953 88.9554688,136.376953 C85.6361328,136.376953 83.4447266,138.632812 83.4447266,142.306641 C83.4447266,146.001953 85.6146485,148.225586 88.9554688,148.225586 Z M88.9554688,146.109375 C87.2582031,146.109375 86.1625,144.734375 86.1625,142.306641 C86.1625,139.889648 87.2689453,138.503906 88.9554688,138.503906 C90.6527344,138.503906 91.7484375,139.889648 91.7484375,142.306641 C91.7484375,144.734375 90.6527344,146.109375 88.9554688,146.109375 Z M112.167773,136.613281 L109.525195,136.613281 L107.602344,145.357422 L107.537891,145.357422 L105.314258,136.613281 L102.746875,136.613281 L100.523242,145.357422 L100.469531,145.357422 L98.5466797,136.613281 L95.8611329,136.613281 L98.9441407,148 L101.737109,148 L103.971484,139.674805 L104.025195,139.674805 L106.270313,148 L109.084766,148 L112.167773,136.613281 Z M114.099805,148 L116.774609,148 L116.774609,141.404297 C116.774609,139.771484 117.752149,138.665039 119.288281,138.665039 C120.813672,138.665039 121.565625,139.567383 121.565625,141.178711 L121.565625,148 L124.24043,148 L124.24043,140.641602 C124.24043,138.009766 122.811719,136.398438 120.298047,136.398438 C118.54707,136.398438 117.333203,137.214844 116.720899,138.568359 L116.667188,138.568359 L116.667188,136.613281 L114.099805,136.613281 L114.099805,148 Z M127.05332,148 L129.728125,148 L129.728125,132.499023 L127.05332,132.499023 L127.05332,148 Z M137.643555,148.225586 C140.984375,148.225586 143.154297,146.001953 143.154297,142.306641 C143.154297,138.62207 140.962891,136.376953 137.643555,136.376953 C134.324219,136.376953 132.132813,138.632812 132.132813,142.306641 C132.132813,146.001953 134.302734,148.225586 137.643555,148.225586 Z M137.643555,146.109375 C135.946289,146.109375 134.850586,144.734375 134.850586,142.306641 C134.850586,139.889648 135.957031,138.503906 137.643555,138.503906 C139.34082,138.503906 140.436524,139.889648 140.436524,142.306641 C140.436524,144.734375 139.34082,146.109375 137.643555,146.109375 Z M149.630274,146.163086 C148.470117,146.163086 147.69668,145.572266 147.69668,144.637695 C147.69668,143.735352 148.437891,143.155273 149.726953,143.069336 L152.358789,142.908203 L152.358789,143.77832 C152.358789,145.15332 151.144922,146.163086 149.630274,146.163086 Z M148.82461,148.182617 C150.285547,148.182617 151.714258,147.419922 152.369531,146.18457 L152.423242,146.18457 L152.423242,148 L155.001367,148 L155.001367,140.158203 C155.001367,137.870117 153.164453,136.376953 150.339258,136.376953 C147.438867,136.376953 145.623438,137.902344 145.505274,140.029297 L147.986719,140.029297 C148.158594,139.083984 148.964258,138.47168 150.231836,138.47168 C151.553125,138.47168 152.358789,139.15918 152.358789,140.351562 L152.358789,141.167969 L149.350977,141.339844 C146.579492,141.511719 145.021875,142.725586 145.021875,144.745117 C145.021875,146.796875 146.622461,148.182617 148.82461,148.182617 Z M162.003711,148.182617 C163.66875,148.182617 164.979297,147.333984 165.602344,146.055664 L165.645313,146.055664 L165.645313,148 L168.266406,148 L168.266406,132.499023 L165.591602,132.499023 L165.591602,138.525391 L165.527149,138.525391 C164.925586,137.268555 163.636524,136.419922 162.003711,136.419922 C159.135547,136.419922 157.277149,138.697266 157.277149,142.295898 C157.277149,145.916016 159.135547,148.182617 162.003711,148.182617 Z M162.809375,138.62207 C164.495899,138.62207 165.602344,140.072266 165.602344,142.306641 C165.602344,144.5625 164.495899,145.991211 162.809375,145.991211 C161.079883,145.991211 160.016406,144.573242 160.016406,142.306641 C160.016406,140.050781 161.090625,138.62207 162.809375,138.62207 Z M68.4941406,167 L70.4013672,167 L70.4013672,159.256836 L72.2470703,159.256836 L72.2470703,157.771484 L70.375,157.771484 L70.375,156.901367 C70.375,156.083984 70.7617188,155.670898 71.5878906,155.670898 C71.8427734,155.670898 72.0976562,155.688477 72.2822266,155.723633 L72.2822266,154.317383 C72.0361328,154.273438 71.6054688,154.229492 71.21875,154.229492 C69.3378906,154.229492 68.4941406,155.073242 68.4941406,156.866211 L68.4941406,157.771484 L67.2197266,157.771484 L67.2197266,159.256836 L68.4941406,159.256836 L68.4941406,167 Z M77.8268467,167.175781 C80.4723545,167.175781 82.2125889,165.356445 82.2125889,162.376953 C82.2125889,159.40625 80.4635654,157.586914 77.8268467,157.586914 C75.1901279,157.586914 73.4411045,159.40625 73.4411045,162.376953 C73.4411045,165.356445 75.1813389,167.175781 77.8268467,167.175781 Z M77.8268467,165.611328 C76.3414951,165.611328 75.3746983,164.433594 75.3746983,162.376953 C75.3746983,160.329102 76.3414951,159.151367 77.8268467,159.151367 C79.3121983,159.151367 80.2789951,160.329102 80.2789951,162.376953 C80.2789951,164.433594 79.3209873,165.611328 77.8268467,165.611328 Z M84.1712715,167 L86.069709,167 L86.069709,161.462891 C86.069709,160.15332 86.8255684,159.335938 88.0472481,159.335938 C88.4163887,159.335938 88.7503731,159.379883 88.8997871,159.441406 L88.8997871,157.674805 C88.7591621,157.648438 88.5218574,157.604492 88.2493965,157.604492 C87.1595528,157.604492 86.3333809,158.246094 86.0257637,159.327148 L85.9818184,159.327148 L85.9818184,157.753906 L84.1712715,157.753906 L84.1712715,167 Z M94.7068008,167 L96.6052383,167 L96.6052383,161.287109 C96.6052383,160.100586 97.405043,159.22168 98.530043,159.22168 C99.6023086,159.22168 100.279066,159.898438 100.279066,160.961914 L100.279066,167 L102.142348,167 L102.142348,161.225586 C102.142348,160.056641 102.924574,159.22168 104.049574,159.22168 C105.174574,159.22168 105.816176,159.907227 105.816176,161.102539 L105.816176,167 L107.723402,167 L107.723402,160.645508 C107.723402,158.808594 106.52809,157.595703 104.699965,157.595703 C103.381606,157.595703 102.291762,158.28125 101.817152,159.40625 L101.773207,159.40625 C101.404066,158.254883 100.472426,157.595703 99.1892227,157.595703 C97.9411758,157.595703 96.9743789,158.28125 96.561293,159.30957 L96.5173477,159.30957 L96.5173477,157.753906 L94.7068008,157.753906 L94.7068008,167 Z M113.276812,165.655273 C112.25728,165.655273 111.589312,165.12793 111.589312,164.319336 C111.589312,163.52832 112.230913,163.027344 113.364702,162.948242 L115.641069,162.807617 L115.641069,163.537109 C115.641069,164.741211 114.60396,165.655273 113.276812,165.655273 Z M112.749468,167.158203 C113.962358,167.158203 115.131304,166.507812 115.667437,165.479492 L115.711382,165.479492 L115.711382,167 L117.530718,167 L117.530718,160.62793 C117.530718,158.773438 116.098101,157.586914 113.85689,157.586914 C111.571733,157.586914 110.147905,158.817383 110.042437,160.487305 L111.835405,160.487305 C112.002398,159.661133 112.687944,159.133789 113.786577,159.133789 C114.946733,159.133789 115.641069,159.749023 115.641069,160.777344 L115.641069,161.489258 L113.109819,161.638672 C110.912554,161.761719 109.673296,162.754883 109.673296,164.37207 C109.673296,166.033203 110.938921,167.158203 112.749468,167.158203 Z M127.795065,160.935547 C127.628072,159.116211 126.177877,157.586914 123.796041,157.586914 C121.168111,157.586914 119.445455,159.441406 119.445455,162.376953 C119.445455,165.365234 121.168111,167.175781 123.813619,167.175781 C126.037252,167.175781 127.610494,165.839844 127.812643,163.871094 L125.984518,163.871094 C125.764791,164.943359 125.000143,165.584961 123.831197,165.584961 C122.354635,165.584961 121.379049,164.407227 121.379049,162.376953 C121.379049,160.390625 122.345846,159.168945 123.813619,159.168945 C125.052877,159.168945 125.791158,159.951172 125.984518,160.935547 L127.795065,160.935547 Z M135.361169,154.106445 C131.704919,154.106445 129.419763,156.628906 129.419763,160.663086 C129.419763,164.697266 131.704919,167.210938 135.361169,167.210938 C139.00863,167.210938 141.302575,164.697266 141.302575,160.663086 C141.302575,156.628906 139.00863,154.106445 135.361169,154.106445 Z M135.361169,155.837891 C137.769372,155.837891 139.281091,157.701172 139.281091,160.663086 C139.281091,163.616211 137.769372,165.479492 135.361169,165.479492 C132.952966,165.479492 131.432458,163.616211 131.432458,160.663086 C131.432458,157.701172 132.952966,155.837891 135.361169,155.837891 Z M143.103055,163.466797 C143.226102,165.760742 145.124539,167.210938 147.937039,167.210938 C150.942899,167.210938 152.832547,165.725586 152.832547,163.352539 C152.832547,161.498047 151.751492,160.452148 149.14993,159.836914 L147.752469,159.494141 C146.117703,159.089844 145.449734,158.5625 145.449734,157.666016 C145.449734,156.541016 146.495633,155.767578 148.02493,155.767578 C149.554227,155.767578 150.600125,156.532227 150.714383,157.797852 L152.630399,157.797852 C152.568875,155.609375 150.731961,154.106445 148.051297,154.106445 C145.344266,154.106445 143.437039,155.609375 143.437039,157.797852 C143.437039,159.564453 144.518094,160.654297 146.847195,161.216797 L148.49075,161.612305 C150.134305,162.016602 150.828641,162.605469 150.828641,163.589844 C150.828641,164.723633 149.677274,165.549805 148.077664,165.549805 C146.407742,165.549805 145.186063,164.723633 145.045438,163.466797 L143.103055,163.466797 Z M33.5,159 C34.0618475,159.275002 34.6118475,159.275002 34.5,159 L41,151 C40.9118475,150.468002 40.7368475,150.113002 40,150 L37,150 L37,144 C36.8558475,143.446002 36.4068475,142.999002 36,143 L32,143 C31.3028475,143.012002 30.8548475,143.461002 31,144 L31,150 L28,150 C27.0108475,150.148002 26.8348475,150.506002 27,151 L33.5,159 Z M34,167 C24.6111593,167 17,159.388841 17,150 C17,140.611159 24.6111593,133 34,133 C43.3888407,133 51,140.611159 51,150 C51,159.388841 43.3888407,167 34,167 Z M34,169 C44.4934102,169 53,160.49341 53,150 C53,139.50659 44.4934102,131 34,131 C23.5065898,131 15,139.50659 15,150 C15,160.49341 23.5065898,169 34,169 Z" transform="translate(0 -120)"/>
</svg>
