<svg xmlns="http://www.w3.org/2000/svg" width="18" height="18" viewBox="0 0 18 18">
  <path fill="#65D5FF" fill-rule="evenodd" d="M9,19 C4.02943725,19 0,14.9705627 0,10 C0,5.02943725 4.02943725,1 9,1 C13.9705627,1 18,5.02943725 18,10 C18,14.9705627 13.9705627,19 9,19 Z M10,10 L10,5.5 C10,5.22385763 9.77614237,5 9.5,5 L8.5,5 C8.22385763,5 8,5.22385763 8,5.5 L8,10 L6.04031242,10 C5.92677668,10 5.81662142,10.0386404 5.7279649,10.1095656 C5.51233393,10.2820704 5.47737324,10.5967166 5.64987802,10.8123475 L8.6095656,14.511957 C8.63263148,14.5407893 8.65882012,14.566978 8.68765248,14.5900439 C8.90328344,14.7625486 9.21792963,14.727588 9.3904344,14.511957 L12.350122,10.8123475 C12.4210472,10.723691 12.4596876,10.6135357 12.4596876,10.5 C12.4596876,10.2238576 12.23583,10 11.9596876,10 L10,10 Z" transform="translate(0 -1)"/>
</svg>
