<svg xmlns="http://www.w3.org/2000/svg" width="18" height="18" viewBox="0 0 18 18">
  <path fill="#65D5FF" fill-rule="evenodd" d="M9,18 C4.02943725,18 0,13.9705627 0,9 C0,4.02943725 4.02943725,0 9,0 C13.9705627,0 18,4.02943725 18,9 C18,13.9705627 13.9705627,18 9,18 Z M8.07325862,11.2002653 L9.47975729,11.2002653 C9.47975729,9.75198939 9.50760875,9.41777188 10.7330729,8.74933687 C11.6800225,8.23408488 12.4320119,7.60742706 12.4320119,6.28448276 C12.4320119,4.80835544 11.345805,3.75 9.27087135,3.75 C7.55800663,3.75 6.40217109,4.51591512 5.59447878,5.49071618 L6.69461141,6.47944297 C7.2098634,5.8806366 8.08718435,5.28183024 9.11768833,5.28183024 C10.1342666,5.28183024 10.7191472,5.71352785 10.7191472,6.40981432 C10.7191472,7.23143236 10.3013753,7.52387268 9.39620292,8.0530504 C8.53280769,8.54045093 8.03148143,9.20888594 8.03148143,10.2254642 C8.03148143,10.5596817 8.03148143,10.8660477 8.07325862,11.2002653 Z M7.82259549,13.3796419 C7.82259549,13.8603274 8.20867233,14.25 8.68719511,14.25 L8.86582081,14.25 C9.34332599,14.25 9.73042042,13.8636787 9.73042042,13.3796419 C9.73042042,12.8989564 9.34434358,12.5092838 8.86582081,12.5092838 L8.68719511,12.5092838 C8.20968992,12.5092838 7.82259549,12.8956052 7.82259549,13.3796419 Z"/>
</svg>
