<svg id="svg" version="1.1" xmlns="http://www.w3.org/2000/svg" xmlns:xlink="http://www.w3.org/1999/xlink" width="18" height="18" viewBox="0, 0, 400,400"><g id="svgg"><path id="path0" d="M184.570 0.402 C 176.725 1.103,173.518 1.485,167.969 2.381 C 164.538 2.935,151.834 5.496,151.503 5.701 C 151.358 5.791,149.525 6.309,147.431 6.854 C 145.337 7.398,141.411 8.571,138.706 9.462 C 136.002 10.352,133.533 11.126,133.220 11.182 C 132.907 11.237,132.204 11.492,131.657 11.748 C 130.435 12.321,129.782 12.588,126.563 13.827 C 125.166 14.364,123.496 15.016,122.852 15.274 C 122.207 15.533,121.504 15.786,121.289 15.837 C 119.646 16.222,105.268 23.413,101.263 25.852 C 99.916 26.673,98.642 27.344,98.431 27.344 C 98.220 27.344,98.047 27.520,98.047 27.734 C 98.047 27.949,97.837 28.125,97.581 28.125 C 97.325 28.125,95.710 29.048,93.992 30.176 C 92.275 31.304,90.580 32.402,90.226 32.617 C 89.398 33.120,85.900 35.527,83.398 37.316 C 82.324 38.084,81.006 39.007,80.469 39.367 C 79.932 39.727,79.404 40.122,79.297 40.246 C 79.189 40.370,78.398 40.989,77.539 41.622 C 76.680 42.255,75.781 42.949,75.543 43.164 C 75.304 43.379,74.431 44.082,73.602 44.727 C 64.723 51.635,51.635 64.723,44.727 73.602 C 44.082 74.431,43.379 75.304,43.164 75.543 C 42.949 75.781,42.255 76.680,41.622 77.539 C 40.989 78.398,40.370 79.189,40.246 79.297 C 40.122 79.404,39.727 79.932,39.367 80.469 C 39.007 81.006,38.084 82.324,37.316 83.398 C 35.527 85.900,33.120 89.398,32.617 90.226 C 32.402 90.580,31.304 92.275,30.176 93.992 C 29.048 95.710,28.125 97.325,28.125 97.581 C 28.125 97.837,27.949 98.047,27.734 98.047 C 27.520 98.047,27.344 98.220,27.344 98.431 C 27.344 98.642,26.673 99.916,25.852 101.263 C 23.413 105.268,16.222 119.646,15.837 121.289 C 15.786 121.504,15.533 122.207,15.274 122.852 C 15.016 123.496,14.364 125.166,13.827 126.563 C 12.764 129.324,12.330 130.380,11.696 131.755 C 11.469 132.248,11.237 132.907,11.182 133.220 C 11.126 133.533,10.345 136.023,9.447 138.752 C 8.548 141.482,7.754 144.031,7.682 144.416 C 7.562 145.060,7.233 146.251,5.657 151.758 C 4.255 156.655,1.663 171.469,0.953 178.634 C 0.217 186.063,0.089 189.242,0.089 200.000 C 0.089 213.950,0.456 219.364,2.157 230.469 C 2.823 234.814,5.424 248.050,5.701 248.497 C 5.791 248.642,6.309 250.475,6.854 252.569 C 7.398 254.663,8.571 258.589,9.462 261.294 C 10.352 263.998,11.126 266.467,11.182 266.780 C 11.237 267.093,11.445 267.708,11.644 268.147 C 12.416 269.853,12.885 270.991,13.827 273.438 C 14.364 274.834,15.016 276.504,15.274 277.148 C 15.533 277.793,15.786 278.496,15.837 278.711 C 16.222 280.354,23.413 294.732,25.852 298.737 C 26.673 300.084,27.344 301.358,27.344 301.569 C 27.344 301.780,27.520 301.953,27.734 301.953 C 27.949 301.953,28.125 302.163,28.125 302.419 C 28.125 302.675,29.048 304.290,30.176 306.008 C 31.304 307.725,32.402 309.420,32.617 309.774 C 33.120 310.602,35.527 314.100,37.316 316.602 C 38.084 317.676,39.007 318.994,39.367 319.531 C 39.727 320.068,40.122 320.596,40.246 320.703 C 40.370 320.811,40.989 321.602,41.622 322.461 C 42.255 323.320,42.949 324.219,43.164 324.457 C 43.379 324.696,44.082 325.569,44.727 326.398 C 51.635 335.277,64.723 348.365,73.602 355.273 C 74.431 355.918,75.304 356.621,75.543 356.836 C 75.781 357.051,76.680 357.745,77.539 358.378 C 78.398 359.011,79.189 359.630,79.297 359.754 C 79.404 359.878,79.932 360.273,80.469 360.633 C 81.006 360.993,82.324 361.916,83.398 362.684 C 85.900 364.473,89.398 366.880,90.226 367.383 C 90.580 367.598,92.275 368.696,93.992 369.824 C 95.710 370.952,97.325 371.875,97.581 371.875 C 97.837 371.875,98.047 372.051,98.047 372.266 C 98.047 372.480,98.220 372.656,98.431 372.656 C 98.642 372.656,99.916 373.327,101.263 374.148 C 105.268 376.587,119.646 383.778,121.289 384.163 C 121.504 384.214,122.207 384.467,122.852 384.726 C 123.496 384.984,125.166 385.636,126.563 386.173 C 129.324 387.236,130.380 387.670,131.755 388.304 C 132.248 388.531,132.907 388.763,133.220 388.818 C 133.533 388.874,136.002 389.648,138.706 390.538 C 141.411 391.429,145.337 392.602,147.431 393.146 C 149.525 393.691,151.359 394.210,151.506 394.301 C 152.343 394.818,169.405 397.967,174.805 398.600 C 184.392 399.725,187.974 399.911,200.000 399.911 C 212.026 399.911,215.608 399.725,225.195 398.600 C 230.595 397.967,247.657 394.818,248.494 394.301 C 248.641 394.210,250.475 393.691,252.569 393.146 C 254.663 392.602,258.589 391.429,261.294 390.538 C 263.998 389.648,266.467 388.874,266.780 388.818 C 267.093 388.763,267.796 388.508,268.343 388.252 C 269.565 387.679,270.218 387.412,273.438 386.173 C 274.834 385.636,276.504 384.984,277.148 384.726 C 277.793 384.467,278.496 384.214,278.711 384.163 C 280.354 383.778,294.732 376.587,298.737 374.148 C 300.084 373.327,301.358 372.656,301.569 372.656 C 301.780 372.656,301.953 372.480,301.953 372.266 C 301.953 372.051,302.163 371.875,302.419 371.875 C 302.675 371.875,304.290 370.952,306.008 369.824 C 307.725 368.696,309.420 367.598,309.774 367.383 C 310.602 366.880,314.100 364.473,316.602 362.684 C 317.676 361.916,318.994 360.993,319.531 360.633 C 320.068 360.273,320.596 359.878,320.703 359.754 C 320.811 359.630,321.602 359.011,322.461 358.378 C 323.320 357.745,324.219 357.051,324.457 356.836 C 324.696 356.621,325.567 355.918,326.392 355.273 C 335.343 348.284,348.410 335.219,355.273 326.398 C 355.918 325.569,356.621 324.696,356.836 324.457 C 357.051 324.219,357.745 323.320,358.378 322.461 C 359.011 321.602,359.630 320.811,359.754 320.703 C 359.878 320.596,360.273 320.068,360.633 319.531 C 360.993 318.994,361.916 317.676,362.684 316.602 C 364.473 314.100,366.880 310.602,367.383 309.774 C 367.598 309.420,368.696 307.725,369.824 306.008 C 370.952 304.290,371.875 302.675,371.875 302.419 C 371.875 302.163,372.051 301.953,372.266 301.953 C 372.480 301.953,372.656 301.780,372.656 301.569 C 372.656 301.358,373.327 300.084,374.148 298.737 C 376.587 294.732,383.778 280.354,384.163 278.711 C 384.214 278.496,384.467 277.793,384.726 277.148 C 384.984 276.504,385.636 274.834,386.173 273.438 C 387.236 270.676,387.670 269.620,388.304 268.245 C 388.531 267.752,388.763 267.093,388.818 266.780 C 388.874 266.467,389.648 263.998,390.538 261.294 C 391.429 258.589,392.602 254.663,393.146 252.569 C 393.691 250.475,394.209 248.642,394.299 248.497 C 394.576 248.050,397.177 234.814,397.843 230.469 C 398.763 224.460,398.893 223.348,399.591 215.507 C 400.006 210.855,400.006 189.145,399.591 184.493 C 398.893 176.652,398.763 175.540,397.843 169.531 C 397.177 165.186,394.576 151.950,394.299 151.503 C 394.209 151.358,393.691 149.525,393.146 147.431 C 392.602 145.337,391.429 141.411,390.538 138.706 C 389.648 136.002,388.874 133.533,388.818 133.220 C 388.763 132.907,388.531 132.248,388.304 131.755 C 387.670 130.380,387.236 129.324,386.173 126.563 C 385.636 125.166,384.984 123.496,384.726 122.852 C 384.467 122.207,384.214 121.504,384.163 121.289 C 383.778 119.646,376.587 105.268,374.148 101.263 C 373.327 99.916,372.656 98.642,372.656 98.431 C 372.656 98.220,372.480 98.047,372.266 98.047 C 372.051 98.047,371.875 97.837,371.875 97.581 C 371.875 97.325,370.952 95.710,369.824 93.992 C 368.696 92.275,367.598 90.580,367.383 90.226 C 366.880 89.398,364.473 85.900,362.684 83.398 C 361.916 82.324,360.993 81.006,360.633 80.469 C 360.273 79.932,359.878 79.404,359.754 79.297 C 359.630 79.189,359.011 78.398,358.378 77.539 C 357.745 76.680,357.051 75.781,356.836 75.543 C 356.621 75.304,355.918 74.431,355.273 73.602 C 348.365 64.723,335.277 51.635,326.398 44.727 C 325.569 44.082,324.696 43.379,324.457 43.164 C 324.219 42.949,323.320 42.255,322.461 41.622 C 321.602 40.989,320.811 40.370,320.703 40.246 C 320.596 40.122,320.068 39.727,319.531 39.367 C 318.994 39.007,317.676 38.084,316.602 37.316 C 314.100 35.527,310.602 33.120,309.774 32.617 C 309.420 32.402,307.725 31.304,306.008 30.176 C 304.290 29.048,302.675 28.125,302.419 28.125 C 302.163 28.125,301.953 27.949,301.953 27.734 C 301.953 27.520,301.780 27.344,301.569 27.344 C 301.358 27.344,300.084 26.673,298.737 25.852 C 294.732 23.413,280.354 16.222,278.711 15.837 C 278.496 15.786,277.793 15.533,277.148 15.274 C 276.504 15.016,274.834 14.364,273.438 13.827 C 270.991 12.885,269.853 12.416,268.147 11.644 C 267.708 11.445,267.093 11.237,266.780 11.182 C 266.467 11.126,263.998 10.352,261.294 9.462 C 258.589 8.571,254.663 7.398,252.569 6.854 C 250.475 6.309,248.642 5.791,248.497 5.701 C 248.050 5.424,234.814 2.823,230.469 2.157 C 224.460 1.237,223.342 1.106,215.507 0.409 C 211.137 0.020,188.907 0.015,184.570 0.402 M123.828 85.768 C 125.010 85.850,126.768 86.012,127.734 86.128 C 128.701 86.243,130.635 86.418,132.031 86.516 C 133.428 86.614,134.570 86.723,134.570 86.757 C 134.570 86.821,135.292 86.925,138.086 87.267 C 138.945 87.373,140.615 87.635,141.797 87.851 C 142.979 88.067,144.561 88.336,145.313 88.450 C 146.064 88.564,147.119 88.746,147.656 88.855 C 149.340 89.194,152.505 89.847,153.320 90.024 C 157.177 90.859,159.561 91.417,161.719 91.989 C 163.115 92.360,164.434 92.701,164.648 92.748 C 164.863 92.795,166.357 93.225,167.969 93.705 C 184.179 98.532,191.689 101.633,212.109 111.934 C 212.861 112.313,213.916 112.922,214.453 113.288 C 214.990 113.653,216.396 114.488,217.578 115.144 C 220.716 116.884,232.695 124.736,234.116 125.985 C 234.366 126.204,235.537 127.074,236.719 127.918 C 237.900 128.762,239.851 130.252,241.054 131.230 C 242.257 132.208,243.839 133.476,244.570 134.048 C 245.300 134.621,246.338 135.470,246.875 135.936 C 247.412 136.402,248.906 137.691,250.195 138.801 C 253.536 141.677,266.933 155.117,269.925 158.594 C 271.311 160.205,272.538 161.611,272.650 161.719 C 272.931 161.987,276.629 166.647,279.990 170.970 C 283.766 175.824,290.317 185.656,294.336 192.499 C 297.385 197.691,303.604 210.067,305.858 215.430 C 306.761 217.578,307.722 219.863,307.994 220.508 C 310.767 227.090,314.671 239.136,316.856 247.852 C 317.502 250.430,318.108 252.979,318.203 253.516 C 318.298 254.053,318.625 255.635,318.930 257.031 C 319.398 259.172,319.944 262.136,320.873 267.578 C 321.015 268.410,321.911 275.556,322.440 280.078 C 322.781 282.992,323.180 291.039,323.211 295.611 L 323.242 300.401 305.510 300.404 C 295.757 300.406,287.723 300.353,287.656 300.286 C 287.590 300.220,287.510 298.327,287.478 296.079 C 287.425 292.296,286.972 285.378,286.543 281.791 C 286.444 280.956,286.261 279.395,286.137 278.320 C 285.912 276.361,285.690 274.866,285.352 273.047 C 285.253 272.510,285.061 271.191,284.927 270.117 C 284.792 269.043,284.627 268.072,284.561 267.960 C 284.494 267.849,284.325 266.970,284.186 266.007 C 283.845 263.651,281.825 255.141,280.804 251.758 C 279.555 247.616,276.598 238.579,276.202 237.695 C 276.010 237.266,275.414 235.768,274.878 234.367 C 274.342 232.967,273.493 230.857,272.992 229.680 C 271.598 226.407,264.631 212.485,263.604 210.920 C 263.104 210.158,262.358 208.927,261.946 208.185 C 260.659 205.870,255.192 197.703,252.148 193.550 C 244.898 183.657,233.406 171.475,223.371 163.047 C 221.000 161.055,214.870 156.289,213.098 155.059 C 212.030 154.317,210.416 153.159,209.510 152.484 C 204.057 148.419,186.635 138.783,179.671 135.980 C 178.928 135.681,177.529 135.085,176.563 134.656 C 171.128 132.244,157.457 127.685,153.906 127.100 C 153.154 126.976,152.275 126.734,151.953 126.562 C 151.631 126.390,150.840 126.157,150.195 126.044 C 147.972 125.655,145.115 125.053,144.531 124.851 C 144.209 124.739,143.330 124.553,142.578 124.438 C 141.826 124.323,140.728 124.138,140.137 124.028 C 139.546 123.918,138.579 123.739,137.988 123.630 C 135.269 123.127,129.235 122.291,126.758 122.072 C 125.254 121.940,123.232 121.762,122.266 121.676 C 121.299 121.591,117.783 121.405,114.453 121.263 C 111.123 121.120,108.358 120.969,108.308 120.926 C 108.243 120.870,108.137 87.557,108.195 85.468 C 108.203 85.215,118.810 85.419,123.828 85.768 M117.578 157.372 C 118.760 157.400,120.430 157.508,121.289 157.611 C 122.148 157.715,123.730 157.901,124.805 158.024 C 129.175 158.527,129.964 158.636,131.836 158.990 C 132.910 159.193,134.316 159.449,134.961 159.559 C 138.386 160.140,145.962 161.960,148.099 162.714 C 148.992 163.029,150.092 163.361,150.545 163.452 C 151.896 163.724,161.003 167.084,163.961 168.403 C 164.871 168.808,165.732 169.141,165.872 169.141 C 166.170 169.141,175.988 174.092,178.380 175.448 C 184.257 178.780,193.940 185.241,196.734 187.695 C 196.978 187.910,197.512 188.350,197.919 188.672 C 199.182 189.671,203.241 193.119,204.233 194.036 C 204.752 194.515,205.357 194.795,205.578 194.659 C 205.799 194.522,205.875 194.581,205.747 194.788 C 205.618 194.996,206.932 196.562,208.667 198.267 C 216.504 205.972,226.806 218.944,230.676 225.983 C 230.914 226.417,231.879 228.087,232.820 229.694 C 235.461 234.209,239.268 242.008,241.251 246.971 C 241.659 247.991,242.134 248.826,242.308 248.827 C 242.482 248.827,242.527 248.986,242.408 249.178 C 242.289 249.370,242.620 250.664,243.143 252.054 C 245.655 258.730,248.865 271.241,249.831 278.125 C 249.936 278.877,250.098 279.846,250.191 280.278 C 250.283 280.710,250.462 282.204,250.588 283.598 C 250.713 284.992,250.901 286.739,251.004 287.479 C 251.107 288.220,251.206 289.846,251.224 291.092 C 251.241 292.339,251.369 293.359,251.507 293.359 C 251.645 293.358,251.670 294.948,251.563 296.891 L 251.367 300.425 233.619 300.400 C 223.857 300.387,215.838 300.335,215.799 300.285 C 215.759 300.236,215.617 297.734,215.482 294.727 C 215.347 291.719,215.168 288.906,215.085 288.477 C 215.001 288.047,214.816 286.641,214.672 285.352 C 214.401 282.917,212.354 273.192,211.753 271.484 C 211.564 270.947,211.020 269.189,210.544 267.578 C 210.067 265.967,209.450 264.121,209.171 263.477 C 208.891 262.832,208.188 261.074,207.608 259.570 C 202.589 246.566,192.093 231.491,181.210 221.656 C 179.620 220.220,177.793 218.569,177.148 217.987 C 175.234 216.258,167.937 210.929,165.687 209.617 C 164.539 208.947,162.956 207.999,162.171 207.510 C 158.255 205.076,148.735 200.701,142.570 198.503 C 139.628 197.454,128.758 194.745,125.781 194.318 C 121.621 193.722,117.249 193.312,113.093 193.127 C 110.519 193.012,108.362 192.867,108.300 192.805 C 108.238 192.743,108.186 184.712,108.185 174.959 L 108.183 157.227 111.025 157.031 C 112.588 156.923,114.219 156.944,114.648 157.078 C 115.078 157.212,116.396 157.344,117.578 157.372 M153.735 230.217 C 180.266 238.183,188.587 270.482,169.173 290.138 C 154.659 304.834,130.254 303.930,116.871 288.202 C 114.621 285.557,111.374 280.706,111.342 279.942 C 111.334 279.759,111.080 279.056,110.777 278.379 C 108.614 273.552,107.413 263.962,108.398 259.375 C 108.514 258.838,108.709 257.792,108.833 257.051 C 112.017 237.959,134.591 224.468,153.735 230.217 " stroke="none" fill="#64d4fc" fill-rule="evenodd"></path><path id="path1" d="" stroke="none" fill="#68d4fc" fill-rule="evenodd"></path><path id="path2" d="" stroke="none" fill="#68d4fc" fill-rule="evenodd"></path><path id="path3" d="" stroke="none" fill="#68d4fc" fill-rule="evenodd"></path><path id="path4" d="" stroke="none" fill="#68d4fc" fill-rule="evenodd"></path></g></svg>